<?xml version="1.0" encoding="iso-8859-1"?>
<!-- Generator: Adobe Illustrator 19.1.0, SVG Export Plug-In . SVG Version: 6.00 Build 0)  -->
<svg xmlns="http://www.w3.org/2000/svg" xmlns:xlink="http://www.w3.org/1999/xlink" version="1.1" id="Capa_1" x="0px" y="0px" viewBox="0 0 56.855 56.855" style="enable-background:new 0 0 56.855 56.855;" xml:space="preserve" width="512px" height="512px">
<g>
	<g>
		<path d="M54.28,39.762c3.027-6.356,3.398-13.51,1.045-20.146C50.468,5.92,35.372-1.27,21.676,3.588    C15.046,5.94,9.782,10.703,6.784,16.914L3.885,8.739c-0.369-1.04-1.511-1.585-2.553-1.216c-1.041,0.369-1.586,1.512-1.216,2.554    l4.651,13.116c0.177,0.499,0.546,0.908,1.024,1.137c0.271,0.129,0.565,0.194,0.86,0.194c0.226,0,0.452-0.038,0.668-0.115    l13.846-4.911c1.041-0.369,1.586-1.513,1.216-2.554c-0.369-1.04-1.515-1.585-2.553-1.216l-9.692,3.438    c2.497-5.518,7.073-9.75,12.875-11.809c11.619-4.12,24.421,1.979,28.542,13.597c4.121,11.617-1.979,24.422-13.596,28.543    c-8.41,2.98-17.773,0.689-23.852-5.846c-0.752-0.81-2.018-0.854-2.827-0.102c-0.809,0.752-0.854,2.018-0.102,2.826    c5.081,5.462,12.107,8.41,19.302,8.41c2.951,0,5.931-0.496,8.814-1.52C45.931,50.913,51.252,46.118,54.28,39.762z" fill="#b0b0b0"/>
	</g>
</g>
<g>
</g>
<g>
</g>
<g>
</g>
<g>
</g>
<g>
</g>
<g>
</g>
<g>
</g>
<g>
</g>
<g>
</g>
<g>
</g>
<g>
</g>
<g>
</g>
<g>
</g>
<g>
</g>
<g>
</g>
</svg>
