<?xml version="1.0" encoding="iso-8859-1"?>
<!-- Generator: Adobe Illustrator 19.0.0, SVG Export Plug-In . SVG Version: 6.00 Build 0)  -->
<svg version="1.1" id="Layer_1" xmlns="http://www.w3.org/2000/svg" xmlns:xlink="http://www.w3.org/1999/xlink" x="0px" y="0px"
	 viewBox="0 0 356.766 356.766" style="enable-background:new 0 0 356.766 356.766;" xml:space="preserve">
<g>
	<title>staris-goal-achievement-success-leadership</title>
	<polygon style="fill:#9CE7F7;" points="317.711,30.636 336.994,22.388 317.711,14.14 	"/>
	<path style="fill:#9CE7F7;" d="M256.409,52.928c3.507-5.589,8.232-10.314,13.821-13.821c-5.589-3.507-10.314-8.232-13.821-13.821
		c-3.507,5.589-8.232,10.314-13.821,13.821C248.177,42.614,252.901,47.339,256.409,52.928z"/>
	<path style="fill:#9CE7F7;" d="M217.398,189.577h87.774c0.477-3.832,1.471-7.581,2.954-11.146H161.668
		c-9.234,0-16.719,7.485-16.719,16.719s7.485,16.719,16.719,16.719h146.457c-1.483-3.565-2.476-7.314-2.954-11.146h-87.774v-11.146
		H217.398z M183.96,200.723h-11.146v-11.146h11.146V200.723z M206.252,200.723h-11.146v-11.146h11.146V200.723z"/>
	<path style="fill:#9CE7F7;" d="M128.231,278.744h87.774c0.477-3.832,1.471-7.581,2.954-11.146H72.501
		c-9.234,0-16.719,7.485-16.719,16.719s7.485,16.719,16.719,16.719h146.457c-1.483-3.565-2.476-7.314-2.954-11.146H128.23
		L128.231,278.744L128.231,278.744z M94.793,289.89H83.647v-11.146h11.146V289.89z M117.085,289.89h-11.146v-11.146h11.146
		C117.085,278.744,117.085,289.89,117.085,289.89z"/>
	<circle style="fill:#F78628;" cx="111.066" cy="33.534" r="22.292"/>
	<polygon style="fill:#9CE7F7;" points="89.22,110.106 89.22,97.121 82.755,103.642 	"/>
	<path style="fill:#9CE7F7;" d="M39.063,323.328h132.358c0.477-3.832,1.471-7.581,2.954-11.146H27.917
		c-9.234,0-16.719,7.485-16.719,16.719s7.485,16.719,16.719,16.719h146.457c-1.483-3.565-2.476-7.314-2.954-11.146H39.063V323.328z"
		/>
	<path style="fill:#F78628;" d="M96.688,78.563c2.169,0.784,3.631,2.822,3.678,5.127v128.178h16.719v-78.021
		c-0.185-2.887,2.005-5.378,4.893-5.563c0.078-0.005,0.156-0.008,0.235-0.01h50.157c3.168-0.036,5.812,2.411,6.019,5.573v33.438
		h16.719v-39.011c-0.212-9.318-7.844-16.752-17.165-16.719h-39.011c-2.893-0.056-5.193-2.446-5.137-5.338
		c0.001-0.078,0.005-0.156,0.01-0.235V78.117c-0.185-2.887,2.005-5.378,4.893-5.563c0.078-0.005,0.156-0.008,0.235-0.01h33.438
		c9.32,0.033,16.952-7.401,17.165-16.719V11.242H178.39v44.584c-0.207,3.162-2.851,5.609-6.019,5.573h-42.856
		c-11.514,7.615-26.524,7.371-37.785-0.613L60.686,91.827c-6.519,6.527-6.519,17.102,0,23.629l16.719,16.719l8.861-8.861
		l-15.549-15.549c-2.161-2.174-2.161-5.684,0-7.858l19.951-19.951C92.253,78.396,94.579,77.858,96.688,78.563z"/>
	<path style="fill:#9CE7F7;" d="M211.825,234.16h48.763c0.477-3.832,1.471-7.581,2.954-11.146H117.085
		c-9.234,0-16.719,7.485-16.719,16.719s7.485,16.719,16.719,16.719h146.457c-1.483-3.565-2.476-7.314-2.954-11.146h-48.763
		L211.825,234.16L211.825,234.16z M200.679,245.306h-66.876V234.16h66.876L200.679,245.306L200.679,245.306z"/>
	<rect x="22.344" y="39.107" style="fill:#414A52;" width="11.146" height="11.146"/>
	<rect x="44.636" y="39.107" style="fill:#414A52;" width="11.146" height="11.146"/>
	<rect x="0.052" y="39.107" style="fill:#414A52;" width="11.146" height="11.146"/>
	<path style="fill:#414A52;" d="M227.206,44.68c11.723,2.92,20.877,12.073,23.796,23.796c0.748,2.985,3.775,4.799,6.761,4.051
		c1.994-0.5,3.551-2.057,4.051-4.051c2.92-11.723,12.073-20.877,23.796-23.796c2.985-0.748,4.799-3.775,4.051-6.761
		c-0.5-1.994-2.057-3.551-4.051-4.051c-11.723-2.92-20.877-12.073-23.796-23.796c-0.748-2.985-3.775-4.799-6.761-4.051
		c-1.994,0.5-3.551,2.057-4.051,4.051c-2.92,11.723-12.073,20.877-23.796,23.796c-2.985,0.748-4.799,3.775-4.051,6.761
		C223.655,42.623,225.212,44.18,227.206,44.68z M256.409,25.453c3.507,5.589,8.232,10.314,13.821,13.821
		c-5.589,3.507-10.314,8.232-13.821,13.821c-3.507-5.589-8.232-10.314-13.821-13.821c5.608-3.555,10.334-8.338,13.821-13.988V25.453
		z"/>
	<rect x="133.803" y="234.16" style="fill:#414A52;" width="66.876" height="11.146"/>
	<path style="fill:#414A52;" d="M353.322,17.261l-39.01-16.719c-2.834-1.2-6.105,0.124-7.305,2.958
		c-0.291,0.686-0.441,1.424-0.441,2.169v161.616H206.252v-39.011c-0.214-15.474-12.835-27.897-28.311-27.865h-32.992V83.69h27.419
		c15.475,0.032,28.097-12.391,28.311-27.865V5.669c-0.207-3.162-2.851-5.609-6.019-5.573h-22.292
		c-2.893,0.056-5.193,2.446-5.137,5.338c0.001,0.078,0.005,0.156,0.01,0.235v44.584h-27.252
		c9.283-15.964,3.868-36.431-12.096-45.715C111.929-4.746,91.462,0.67,82.178,16.634c-6.607,11.362-5.945,25.541,1.691,36.238
		L52.773,83.69c-10.878,10.881-10.878,28.52,0,39.401l20.453,20.453c1.052,1.043,2.475,1.625,3.957,1.616
		c1.548,0.014,3.043-0.564,4.18-1.616l7.858-7.635v81.532c-0.185,2.887,2.005,5.378,4.892,5.563c0.078,0.005,0.156,0.008,0.235,0.01
		h0.446c-7.622,9.843-7.622,23.595,0,33.438H72.501c-15.389,0-27.865,12.476-27.865,27.865c0,6.029,1.956,11.896,5.573,16.719
		H27.917c-15.389,0-27.865,12.476-27.865,27.865c0,15.389,12.476,27.865,27.865,27.865H183.96c3.078,0,5.573-2.495,5.573-5.573
		c0-1.206-0.391-2.379-1.115-3.344c-7.747-10.474-8.3-24.62-1.393-35.667h41.519c3.078,0,5.573-2.495,5.573-5.573
		c0-1.206-0.391-2.379-1.115-3.344c-7.747-10.474-8.3-24.62-1.393-35.667h41.519c3.078,0,5.573-2.495,5.573-5.573
		c0-1.206-0.391-2.379-1.115-3.344c-7.747-10.474-8.3-24.62-1.393-35.667h41.519c3.078,0,5.573-2.495,5.573-5.573
		c0-1.206-0.391-2.379-1.115-3.344c-8.36-11.249-8.36-26.647,0-37.896c1.847-2.462,1.348-5.955-1.114-7.802
		c-0.965-0.723-2.138-1.115-3.344-1.115v-124.5l35.611-15.27c2.832-1.206,4.149-4.48,2.943-7.311
		C355.702,18.879,354.647,17.825,353.322,17.261z M111.066,11.242c12.311,0,22.292,9.98,22.292,22.292s-9.98,22.292-22.292,22.292
		s-22.292-9.98-22.292-22.292S98.754,11.242,111.066,11.242z M89.22,110.106l-6.465-6.52l6.465-6.465V110.106L89.22,110.106z
		 M90.39,79.733L70.439,99.685c-2.161,2.174-2.161,5.684,0,7.858l15.549,15.549l-8.861,8.861l-16.719-16.719
		c-6.519-6.527-6.519-17.102,0-23.629l31.041-31.041c11.261,7.984,26.271,8.227,37.785,0.613h42.856
		c3.168,0.036,5.812-2.411,6.019-5.573V11.019h11.146v44.584c-0.212,9.318-7.844,16.752-17.165,16.719h-33.438
		c-2.893,0.056-5.193,2.446-5.137,5.338c0.001,0.078,0.005,0.156,0.01,0.235v27.865c-0.185,2.887,2.005,5.378,4.893,5.563
		c0.078,0.005,0.156,0.008,0.235,0.01h39.011c9.32-0.033,16.952,7.401,17.165,16.719v39.011H178.11v-33.438
		c-0.207-3.162-2.851-5.609-6.019-5.573h-50.157c-2.893,0.056-5.193,2.446-5.137,5.338c0.001,0.078,0.005,0.156,0.01,0.235v78.021
		h-16.719V83.69c-0.047-2.306-1.509-4.344-3.678-5.127C94.341,77.8,92.021,78.251,90.39,79.733L90.39,79.733z M139.376,211.868
		H128.23V139.42h39.011v27.865h-5.573c-15.389,0-27.865,12.476-27.865,27.865C133.803,201.179,135.759,207.045,139.376,211.868z
		 M171.254,334.474c0.477,3.832,1.471,7.581,2.954,11.146H27.917c-9.234,0-16.719-7.485-16.719-16.719s7.485-16.719,16.719-16.719
		h146.457c-1.483,3.565-2.476,7.314-2.954,11.146H39.063v11.146h132.358H171.254z M183.793,301.036H72.501
		c-9.234,0-16.719-7.485-16.719-16.719s7.485-16.719,16.719-16.719h146.457c-1.483,3.565-2.476,7.314-2.954,11.146H128.23v11.146
		h87.774c0.477,3.832,1.471,7.581,2.954,11.146H183.96H183.793z M228.377,256.452H117.085c-9.234,0-16.719-7.485-16.719-16.719
		s7.485-16.719,16.719-16.719h146.457c-1.483,3.565-2.476,7.314-2.954,11.146h-48.763v11.146h48.763
		c0.477,3.832,1.471,7.581,2.954,11.146h-34.998H228.377z M272.96,211.868H161.668c-9.234,0-16.719-7.485-16.719-16.719
		s7.485-16.719,16.719-16.719h146.457c-1.483,3.565-2.476,7.314-2.954,11.146h-87.774v11.146h87.774
		c0.477,3.832,1.471,7.581,2.954,11.146h-34.998H272.96z M317.544,30.636V13.917l19.282,8.248L317.544,30.636z"/>
	<rect x="105.939" y="278.744" style="fill:#414A52;" width="11.146" height="11.146"/>
	<rect x="83.647" y="278.744" style="fill:#414A52;" width="11.146" height="11.146"/>
	<rect x="195.106" y="189.577" style="fill:#414A52;" width="11.146" height="11.146"/>
	<rect x="172.814" y="189.577" style="fill:#414A52;" width="11.146" height="11.146"/>
</g>
<g>
</g>
<g>
</g>
<g>
</g>
<g>
</g>
<g>
</g>
<g>
</g>
<g>
</g>
<g>
</g>
<g>
</g>
<g>
</g>
<g>
</g>
<g>
</g>
<g>
</g>
<g>
</g>
<g>
</g>
</svg>
